<mxfile host="Electron" modified="2023-04-18T21:02:55.278Z" agent="Mozilla/5.0 (Macintosh; Intel Mac OS X 10_15_7) AppleWebKit/537.36 (KHTML, like Gecko) draw.io/21.1.2 Chrome/106.0.5249.199 Electron/21.4.3 Safari/537.36" etag="V9lQGawUm4henDhrThlM" version="21.1.2" type="device">
  <diagram name="Page-1" id="9oUiu73_JBI9s2S_eNCx">
    <mxGraphModel dx="984" dy="658" grid="1" gridSize="10" guides="1" tooltips="1" connect="1" arrows="1" fold="1" page="1" pageScale="1" pageWidth="827" pageHeight="1169" math="0" shadow="1">
      <root>
        <mxCell id="0" />
        <mxCell id="1" parent="0" />
        <mxCell id="2RbJ4ejWMGaejyaVom47-12" value="" style="group" parent="1" vertex="1" connectable="0">
          <mxGeometry x="50" y="50" width="260" height="240" as="geometry" />
        </mxCell>
        <mxCell id="2RbJ4ejWMGaejyaVom47-3" value="Components" style="shape=hexagon;perimeter=hexagonPerimeter2;whiteSpace=wrap;html=1;fixedSize=1;fontFamily=Merriweather Sans;fontSource=https%3A%2F%2Ffonts.googleapis.com%2Fcss%3Ffamily%3DMerriweather%2BSans;fontSize=12;fillColor=#29467F;fontColor=#FFFFFF;" parent="2RbJ4ejWMGaejyaVom47-12" vertex="1">
          <mxGeometry y="40" width="100" height="80" as="geometry" />
        </mxCell>
        <mxCell id="2RbJ4ejWMGaejyaVom47-4" value="Actors" style="shape=hexagon;perimeter=hexagonPerimeter2;whiteSpace=wrap;html=1;fixedSize=1;fontFamily=Merriweather Sans;fontSource=https%3A%2F%2Ffonts.googleapis.com%2Fcss%3Ffamily%3DMerriweather%2BSans;fontSize=12;fillColor=#A1B28B;" parent="2RbJ4ejWMGaejyaVom47-12" vertex="1">
          <mxGeometry x="80" width="100" height="80" as="geometry" />
        </mxCell>
        <mxCell id="2RbJ4ejWMGaejyaVom47-5" value="Stories" style="shape=hexagon;perimeter=hexagonPerimeter2;whiteSpace=wrap;html=1;fixedSize=1;fontFamily=Merriweather Sans;fontSource=https%3A%2F%2Ffonts.googleapis.com%2Fcss%3Ffamily%3DMerriweather%2BSans;fontSize=12;fillColor=#3C6320;fontColor=#FFFFFF;" parent="2RbJ4ejWMGaejyaVom47-12" vertex="1">
          <mxGeometry x="160" y="40" width="100" height="80" as="geometry" />
        </mxCell>
        <mxCell id="2RbJ4ejWMGaejyaVom47-6" value="Events" style="shape=hexagon;perimeter=hexagonPerimeter2;whiteSpace=wrap;html=1;fixedSize=1;fontFamily=Merriweather Sans;fontSource=https%3A%2F%2Ffonts.googleapis.com%2Fcss%3Ffamily%3DMerriweather%2BSans;fontSize=12;fillColor=#B29F8B;fontColor=#000000;" parent="2RbJ4ejWMGaejyaVom47-12" vertex="1">
          <mxGeometry x="160" y="120" width="100" height="80" as="geometry" />
        </mxCell>
        <mxCell id="2RbJ4ejWMGaejyaVom47-7" value="UI" style="shape=hexagon;perimeter=hexagonPerimeter2;whiteSpace=wrap;html=1;fixedSize=1;fontFamily=Merriweather Sans;fontSource=https%3A%2F%2Ffonts.googleapis.com%2Fcss%3Ffamily%3DMerriweather%2BSans;fontSize=12;fillColor=#7F5529;fontColor=#FFFFFF;" parent="2RbJ4ejWMGaejyaVom47-12" vertex="1">
          <mxGeometry x="80" y="160" width="100" height="80" as="geometry" />
        </mxCell>
        <mxCell id="2RbJ4ejWMGaejyaVom47-8" value="Models" style="shape=hexagon;perimeter=hexagonPerimeter2;whiteSpace=wrap;html=1;fixedSize=1;fontFamily=Merriweather Sans;fontSource=https%3A%2F%2Ffonts.googleapis.com%2Fcss%3Ffamily%3DMerriweather%2BSans;fontSize=12;fillColor=#8B98B2;" parent="2RbJ4ejWMGaejyaVom47-12" vertex="1">
          <mxGeometry y="120" width="100" height="80" as="geometry" />
        </mxCell>
        <mxCell id="2RbJ4ejWMGaejyaVom47-11" value="Caseum" style="shape=hexagon;perimeter=hexagonPerimeter2;whiteSpace=wrap;html=1;fixedSize=1;fontFamily=Merriweather Sans;fontSource=https%3A%2F%2Ffonts.googleapis.com%2Fcss%3Ffamily%3DMerriweather%2BSans;fontSize=20;fillColor=#B2B2B2;fontColor=#000000;fontStyle=1" parent="2RbJ4ejWMGaejyaVom47-12" vertex="1">
          <mxGeometry x="80" y="80" width="100" height="80" as="geometry" />
        </mxCell>
      </root>
    </mxGraphModel>
  </diagram>
</mxfile>
